<mxfile host="app.diagrams.net" modified="2023-08-15T11:57:51.090Z" agent="Mozilla/5.0 (X11; Linux x86_64) AppleWebKit/537.36 (KHTML, like Gecko) Chrome/115.0.0.0 Safari/537.36" etag="F7-66tF3jdxyGuVdNWZ3" version="21.6.8" type="onedrive">
  <diagram name="PÃ¡gina-1" id="eOHg0KZgeXP2Sc9oRTAS">
    <mxGraphModel grid="0" page="0" gridSize="10" guides="1" tooltips="1" connect="1" arrows="1" fold="1" pageScale="1" pageWidth="827" pageHeight="1169" math="0" shadow="0">
      <root>
        <mxCell id="0" />
        <mxCell id="1" parent="0" />
        <mxCell id="yHL_p8VkxZ_rDZIg04jZ-3" value="Disciplina" style="swimlane;fontStyle=1;align=center;verticalAlign=top;childLayout=stackLayout;horizontal=1;startSize=26;horizontalStack=0;resizeParent=1;resizeParentMax=0;resizeLast=0;collapsible=1;marginBottom=0;whiteSpace=wrap;html=1;" vertex="1" parent="1">
          <mxGeometry x="273" y="30" width="234" height="259" as="geometry" />
        </mxCell>
        <mxCell id="yHL_p8VkxZ_rDZIg04jZ-4" value="- sigla: String&lt;br&gt;- nome: String&lt;br&gt;- cargaHoraria: int&lt;br&gt;- ementa: String" style="text;strokeColor=none;fillColor=none;align=left;verticalAlign=top;spacingLeft=4;spacingRight=4;overflow=hidden;rotatable=0;points=[[0,0.5],[1,0.5]];portConstraint=eastwest;whiteSpace=wrap;html=1;" vertex="1" parent="yHL_p8VkxZ_rDZIg04jZ-3">
          <mxGeometry y="26" width="234" height="90" as="geometry" />
        </mxCell>
        <mxCell id="yHL_p8VkxZ_rDZIg04jZ-5" value="" style="line;strokeWidth=1;fillColor=none;align=left;verticalAlign=middle;spacingTop=-1;spacingLeft=3;spacingRight=3;rotatable=0;labelPosition=right;points=[];portConstraint=eastwest;strokeColor=inherit;" vertex="1" parent="yHL_p8VkxZ_rDZIg04jZ-3">
          <mxGeometry y="116" width="234" height="8" as="geometry" />
        </mxCell>
        <mxCell id="yHL_p8VkxZ_rDZIg04jZ-6" value="+setSigla (sigla: String): void&lt;br&gt;+setNome (nome: String): void&lt;br&gt;+setCargaHoraria (cargaHoraria: int): void&lt;br&gt;+setEmenta (ementa: String): void&lt;br&gt;+getSigla (): String&lt;br style=&quot;border-color: var(--border-color);&quot;&gt;+getNome (): String&lt;br style=&quot;border-color: var(--border-color);&quot;&gt;+getCargaHoraria (): int&lt;br style=&quot;border-color: var(--border-color);&quot;&gt;+getEmenta (): String&lt;br style=&quot;border-color: var(--border-color);&quot;&gt;" style="text;strokeColor=none;fillColor=none;align=left;verticalAlign=top;spacingLeft=4;spacingRight=4;overflow=hidden;rotatable=0;points=[[0,0.5],[1,0.5]];portConstraint=eastwest;whiteSpace=wrap;html=1;" vertex="1" parent="yHL_p8VkxZ_rDZIg04jZ-3">
          <mxGeometry y="124" width="234" height="135" as="geometry" />
        </mxCell>
        <mxCell id="yHL_p8VkxZ_rDZIg04jZ-7" value="Aluno" style="swimlane;fontStyle=1;align=center;verticalAlign=top;childLayout=stackLayout;horizontal=1;startSize=26;horizontalStack=0;resizeParent=1;resizeParentMax=0;resizeLast=0;collapsible=1;marginBottom=0;whiteSpace=wrap;html=1;" vertex="1" parent="1">
          <mxGeometry x="67" y="30" width="184" height="255" as="geometry" />
        </mxCell>
        <mxCell id="yHL_p8VkxZ_rDZIg04jZ-8" value="- ra: long&lt;br&gt;- nome: String&lt;br&gt;- sexo: char&lt;br&gt;- enem: double" style="text;strokeColor=none;fillColor=none;align=left;verticalAlign=top;spacingLeft=4;spacingRight=4;overflow=hidden;rotatable=0;points=[[0,0.5],[1,0.5]];portConstraint=eastwest;whiteSpace=wrap;html=1;" vertex="1" parent="yHL_p8VkxZ_rDZIg04jZ-7">
          <mxGeometry y="26" width="184" height="91" as="geometry" />
        </mxCell>
        <mxCell id="yHL_p8VkxZ_rDZIg04jZ-9" value="" style="line;strokeWidth=1;fillColor=none;align=left;verticalAlign=middle;spacingTop=-1;spacingLeft=3;spacingRight=3;rotatable=0;labelPosition=right;points=[];portConstraint=eastwest;strokeColor=inherit;" vertex="1" parent="yHL_p8VkxZ_rDZIg04jZ-7">
          <mxGeometry y="117" width="184" height="8" as="geometry" />
        </mxCell>
        <mxCell id="yHL_p8VkxZ_rDZIg04jZ-10" value="+setRa (ra: long): void&lt;br style=&quot;border-color: var(--border-color);&quot;&gt;+setNome (nome: String): void&lt;br style=&quot;border-color: var(--border-color);&quot;&gt;+setSexo (sexo: char): void&lt;br style=&quot;border-color: var(--border-color);&quot;&gt;+setEnem (enem: double): void&lt;br&gt;+getRa (): long&lt;br style=&quot;border-color: var(--border-color);&quot;&gt;+getNome (): String&lt;br style=&quot;border-color: var(--border-color);&quot;&gt;+getSexo (): char&lt;br style=&quot;border-color: var(--border-color);&quot;&gt;+getEnem (): double" style="text;strokeColor=none;fillColor=none;align=left;verticalAlign=top;spacingLeft=4;spacingRight=4;overflow=hidden;rotatable=0;points=[[0,0.5],[1,0.5]];portConstraint=eastwest;whiteSpace=wrap;html=1;" vertex="1" parent="yHL_p8VkxZ_rDZIg04jZ-7">
          <mxGeometry y="125" width="184" height="130" as="geometry" />
        </mxCell>
        <mxCell id="yHL_p8VkxZ_rDZIg04jZ-11" value="Professor" style="swimlane;fontStyle=1;align=center;verticalAlign=top;childLayout=stackLayout;horizontal=1;startSize=26;horizontalStack=0;resizeParent=1;resizeParentMax=0;resizeLast=0;collapsible=1;marginBottom=0;whiteSpace=wrap;html=1;" vertex="1" parent="1">
          <mxGeometry x="530" y="30" width="206" height="264" as="geometry" />
        </mxCell>
        <mxCell id="yHL_p8VkxZ_rDZIg04jZ-12" value="- ctps: long&lt;br&gt;- nome: String&lt;br&gt;- salario: double&lt;br&gt;- titulacao: String" style="text;strokeColor=none;fillColor=none;align=left;verticalAlign=top;spacingLeft=4;spacingRight=4;overflow=hidden;rotatable=0;points=[[0,0.5],[1,0.5]];portConstraint=eastwest;whiteSpace=wrap;html=1;" vertex="1" parent="yHL_p8VkxZ_rDZIg04jZ-11">
          <mxGeometry y="26" width="206" height="90" as="geometry" />
        </mxCell>
        <mxCell id="yHL_p8VkxZ_rDZIg04jZ-13" value="" style="line;strokeWidth=1;fillColor=none;align=left;verticalAlign=middle;spacingTop=-1;spacingLeft=3;spacingRight=3;rotatable=0;labelPosition=right;points=[];portConstraint=eastwest;strokeColor=inherit;" vertex="1" parent="yHL_p8VkxZ_rDZIg04jZ-11">
          <mxGeometry y="116" width="206" height="8" as="geometry" />
        </mxCell>
        <mxCell id="yHL_p8VkxZ_rDZIg04jZ-14" value="+setCtps (ctps: long): void&lt;br style=&quot;border-color: var(--border-color);&quot;&gt;+setNome (nome: String): void&lt;br style=&quot;border-color: var(--border-color);&quot;&gt;+setSalario (salario: double): void&lt;br style=&quot;border-color: var(--border-color);&quot;&gt;+setTitulacao (titulacao: String): void&lt;br&gt;+getCtps (): long&lt;br style=&quot;border-color: var(--border-color);&quot;&gt;+getNome (): String&lt;br style=&quot;border-color: var(--border-color);&quot;&gt;+getSalario (): double&lt;br style=&quot;border-color: var(--border-color);&quot;&gt;+getTitulacao (): String" style="text;strokeColor=none;fillColor=none;align=left;verticalAlign=top;spacingLeft=4;spacingRight=4;overflow=hidden;rotatable=0;points=[[0,0.5],[1,0.5]];portConstraint=eastwest;whiteSpace=wrap;html=1;" vertex="1" parent="yHL_p8VkxZ_rDZIg04jZ-11">
          <mxGeometry y="124" width="206" height="140" as="geometry" />
        </mxCell>
        <mxCell id="yHL_p8VkxZ_rDZIg04jZ-15" value="Cliente" style="swimlane;fontStyle=1;align=center;verticalAlign=top;childLayout=stackLayout;horizontal=1;startSize=26;horizontalStack=0;resizeParent=1;resizeParentMax=0;resizeLast=0;collapsible=1;marginBottom=0;whiteSpace=wrap;html=1;" vertex="1" parent="1">
          <mxGeometry x="210.5" y="316" width="231" height="259" as="geometry" />
        </mxCell>
        <mxCell id="yHL_p8VkxZ_rDZIg04jZ-16" value="-cpf: String&lt;br&gt;-nome: String&lt;br&gt;-endereco: String&lt;br&gt;-debitos: double" style="text;strokeColor=none;fillColor=none;align=left;verticalAlign=top;spacingLeft=4;spacingRight=4;overflow=hidden;rotatable=0;points=[[0,0.5],[1,0.5]];portConstraint=eastwest;whiteSpace=wrap;html=1;" vertex="1" parent="yHL_p8VkxZ_rDZIg04jZ-15">
          <mxGeometry y="26" width="231" height="90" as="geometry" />
        </mxCell>
        <mxCell id="yHL_p8VkxZ_rDZIg04jZ-17" value="" style="line;strokeWidth=1;fillColor=none;align=left;verticalAlign=middle;spacingTop=-1;spacingLeft=3;spacingRight=3;rotatable=0;labelPosition=right;points=[];portConstraint=eastwest;strokeColor=inherit;" vertex="1" parent="yHL_p8VkxZ_rDZIg04jZ-15">
          <mxGeometry y="116" width="231" height="8" as="geometry" />
        </mxCell>
        <mxCell id="yHL_p8VkxZ_rDZIg04jZ-18" value="+setCpf (cpf: String):void&lt;br&gt;+setNome (nome: String):void&lt;br&gt;+setEndereco (endereco: String):void&lt;br&gt;+setDebitos (debitos: double):void&lt;br&gt;+getCpf (): String&lt;br style=&quot;border-color: var(--border-color);&quot;&gt;+getNome (): String&lt;br style=&quot;border-color: var(--border-color);&quot;&gt;+getEndereco (): String&lt;br style=&quot;border-color: var(--border-color);&quot;&gt;+getDebitos (): double" style="text;strokeColor=none;fillColor=none;align=left;verticalAlign=top;spacingLeft=4;spacingRight=4;overflow=hidden;rotatable=0;points=[[0,0.5],[1,0.5]];portConstraint=eastwest;whiteSpace=wrap;html=1;" vertex="1" parent="yHL_p8VkxZ_rDZIg04jZ-15">
          <mxGeometry y="124" width="231" height="135" as="geometry" />
        </mxCell>
        <mxCell id="yHL_p8VkxZ_rDZIg04jZ-19" value="Produto" style="swimlane;fontStyle=1;align=center;verticalAlign=top;childLayout=stackLayout;horizontal=1;startSize=26;horizontalStack=0;resizeParent=1;resizeParentMax=0;resizeLast=0;collapsible=1;marginBottom=0;whiteSpace=wrap;html=1;" vertex="1" parent="1">
          <mxGeometry x="15" y="316" width="189" height="259" as="geometry" />
        </mxCell>
        <mxCell id="yHL_p8VkxZ_rDZIg04jZ-20" value="-numero: long&lt;br&gt;-nome: String&lt;br&gt;-estoque: int&lt;br&gt;-preco: double" style="text;strokeColor=none;fillColor=none;align=left;verticalAlign=top;spacingLeft=4;spacingRight=4;overflow=hidden;rotatable=0;points=[[0,0.5],[1,0.5]];portConstraint=eastwest;whiteSpace=wrap;html=1;" vertex="1" parent="yHL_p8VkxZ_rDZIg04jZ-19">
          <mxGeometry y="26" width="189" height="91" as="geometry" />
        </mxCell>
        <mxCell id="yHL_p8VkxZ_rDZIg04jZ-21" value="" style="line;strokeWidth=1;fillColor=none;align=left;verticalAlign=middle;spacingTop=-1;spacingLeft=3;spacingRight=3;rotatable=0;labelPosition=right;points=[];portConstraint=eastwest;strokeColor=inherit;" vertex="1" parent="yHL_p8VkxZ_rDZIg04jZ-19">
          <mxGeometry y="117" width="189" height="8" as="geometry" />
        </mxCell>
        <mxCell id="yHL_p8VkxZ_rDZIg04jZ-22" value="+setNumero (numero: long): void&lt;br&gt;+setNome (nome: String): void&lt;br&gt;+setEstoque: (estoque: int): void&lt;br&gt;+setPreco: (preco: double): void&lt;br&gt;+getNumero (): long&lt;br&gt;+getNome (): String&lt;br&gt;+getEstoque (): int&lt;br&gt;+getPreco (): double" style="text;strokeColor=none;fillColor=none;align=left;verticalAlign=top;spacingLeft=4;spacingRight=4;overflow=hidden;rotatable=0;points=[[0,0.5],[1,0.5]];portConstraint=eastwest;whiteSpace=wrap;html=1;" vertex="1" parent="yHL_p8VkxZ_rDZIg04jZ-19">
          <mxGeometry y="125" width="189" height="134" as="geometry" />
        </mxCell>
        <mxCell id="yHL_p8VkxZ_rDZIg04jZ-23" value="NotaFiscal" style="swimlane;fontStyle=1;align=center;verticalAlign=top;childLayout=stackLayout;horizontal=1;startSize=26;horizontalStack=0;resizeParent=1;resizeParentMax=0;resizeLast=0;collapsible=1;marginBottom=0;whiteSpace=wrap;html=1;" vertex="1" parent="1">
          <mxGeometry x="446" y="316" width="244" height="287" as="geometry" />
        </mxCell>
        <mxCell id="yHL_p8VkxZ_rDZIg04jZ-24" value="-numero: long&lt;br&gt;-data: String&lt;br&gt;-serie: String&lt;br&gt;-total: double&lt;br&gt;-imposto: double" style="text;strokeColor=none;fillColor=none;align=left;verticalAlign=top;spacingLeft=4;spacingRight=4;overflow=hidden;rotatable=0;points=[[0,0.5],[1,0.5]];portConstraint=eastwest;whiteSpace=wrap;html=1;" vertex="1" parent="yHL_p8VkxZ_rDZIg04jZ-23">
          <mxGeometry y="26" width="244" height="90" as="geometry" />
        </mxCell>
        <mxCell id="yHL_p8VkxZ_rDZIg04jZ-25" value="" style="line;strokeWidth=1;fillColor=none;align=left;verticalAlign=middle;spacingTop=-1;spacingLeft=3;spacingRight=3;rotatable=0;labelPosition=right;points=[];portConstraint=eastwest;strokeColor=inherit;" vertex="1" parent="yHL_p8VkxZ_rDZIg04jZ-23">
          <mxGeometry y="116" width="244" height="8" as="geometry" />
        </mxCell>
        <mxCell id="yHL_p8VkxZ_rDZIg04jZ-26" value="+setNumero (numero: long): void&lt;br&gt;+setData (data: String): void&lt;br&gt;+setSerie (serie: String): void&lt;br&gt;+setTotal (total: double): void&lt;br&gt;+setImposto (imposto: double): void&lt;br&gt;+getNumero (): long)&lt;br style=&quot;border-color: var(--border-color);&quot;&gt;+getData (): String)&lt;br style=&quot;border-color: var(--border-color);&quot;&gt;+getSerie (): String)&lt;br style=&quot;border-color: var(--border-color);&quot;&gt;+getTotal (): double)&lt;br style=&quot;border-color: var(--border-color);&quot;&gt;+getImposto (): double)" style="text;strokeColor=none;fillColor=none;align=left;verticalAlign=top;spacingLeft=4;spacingRight=4;overflow=hidden;rotatable=0;points=[[0,0.5],[1,0.5]];portConstraint=eastwest;whiteSpace=wrap;html=1;" vertex="1" parent="yHL_p8VkxZ_rDZIg04jZ-23">
          <mxGeometry y="124" width="244" height="163" as="geometry" />
        </mxCell>
        <mxCell id="yHL_p8VkxZ_rDZIg04jZ-27" value="Fornecedor" style="swimlane;fontStyle=1;align=center;verticalAlign=top;childLayout=stackLayout;horizontal=1;startSize=26;horizontalStack=0;resizeParent=1;resizeParentMax=0;resizeLast=0;collapsible=1;marginBottom=0;whiteSpace=wrap;html=1;" vertex="1" parent="1">
          <mxGeometry x="695" y="316" width="222" height="258" as="geometry" />
        </mxCell>
        <mxCell id="yHL_p8VkxZ_rDZIg04jZ-28" value="-codigo: long&lt;br&gt;-nome: String&lt;br&gt;-site: String&lt;br&gt;-email: String" style="text;strokeColor=none;fillColor=none;align=left;verticalAlign=top;spacingLeft=4;spacingRight=4;overflow=hidden;rotatable=0;points=[[0,0.5],[1,0.5]];portConstraint=eastwest;whiteSpace=wrap;html=1;" vertex="1" parent="yHL_p8VkxZ_rDZIg04jZ-27">
          <mxGeometry y="26" width="222" height="90" as="geometry" />
        </mxCell>
        <mxCell id="yHL_p8VkxZ_rDZIg04jZ-29" value="" style="line;strokeWidth=1;fillColor=none;align=left;verticalAlign=middle;spacingTop=-1;spacingLeft=3;spacingRight=3;rotatable=0;labelPosition=right;points=[];portConstraint=eastwest;strokeColor=inherit;" vertex="1" parent="yHL_p8VkxZ_rDZIg04jZ-27">
          <mxGeometry y="116" width="222" height="8" as="geometry" />
        </mxCell>
        <mxCell id="yHL_p8VkxZ_rDZIg04jZ-30" value="+setCodigo (codigo: long): void&lt;br style=&quot;border-color: var(--border-color);&quot;&gt;+setNome (nome: String): void&lt;br style=&quot;border-color: var(--border-color);&quot;&gt;+setSite (site: String): void&lt;br style=&quot;border-color: var(--border-color);&quot;&gt;+setEmail (email: String): void&lt;br&gt;+getCodigo (): long&lt;br style=&quot;border-color: var(--border-color);&quot;&gt;+getNome (): String&lt;br style=&quot;border-color: var(--border-color);&quot;&gt;+getSite (): String&lt;br style=&quot;border-color: var(--border-color);&quot;&gt;+getEmail (): String" style="text;strokeColor=none;fillColor=none;align=left;verticalAlign=top;spacingLeft=4;spacingRight=4;overflow=hidden;rotatable=0;points=[[0,0.5],[1,0.5]];portConstraint=eastwest;whiteSpace=wrap;html=1;" vertex="1" parent="yHL_p8VkxZ_rDZIg04jZ-27">
          <mxGeometry y="124" width="222" height="134" as="geometry" />
        </mxCell>
        <mxCell id="7zfDCQDnotWXHfrVxMM3-17" value="Carga" style="swimlane;fontStyle=1;align=center;verticalAlign=top;childLayout=stackLayout;horizontal=1;startSize=26;horizontalStack=0;resizeParent=1;resizeParentMax=0;resizeLast=0;collapsible=1;marginBottom=0;whiteSpace=wrap;html=1;" vertex="1" parent="1">
          <mxGeometry x="319" y="632" width="218" height="326" as="geometry" />
        </mxCell>
        <mxCell id="7zfDCQDnotWXHfrVxMM3-18" value="-numero: long&lt;br&gt;-cliente: String&lt;br&gt;-endereco: String&lt;br&gt;-cidade: String&lt;br&gt;-valor: double&lt;br&gt;-peso: int" style="text;strokeColor=none;fillColor=none;align=left;verticalAlign=top;spacingLeft=4;spacingRight=4;overflow=hidden;rotatable=0;points=[[0,0.5],[1,0.5]];portConstraint=eastwest;whiteSpace=wrap;html=1;" vertex="1" parent="7zfDCQDnotWXHfrVxMM3-17">
          <mxGeometry y="26" width="218" height="100" as="geometry" />
        </mxCell>
        <mxCell id="7zfDCQDnotWXHfrVxMM3-19" value="" style="line;strokeWidth=1;fillColor=none;align=left;verticalAlign=middle;spacingTop=-1;spacingLeft=3;spacingRight=3;rotatable=0;labelPosition=right;points=[];portConstraint=eastwest;strokeColor=inherit;" vertex="1" parent="7zfDCQDnotWXHfrVxMM3-17">
          <mxGeometry y="126" width="218" height="8" as="geometry" />
        </mxCell>
        <mxCell id="7zfDCQDnotWXHfrVxMM3-20" value="+setNumero (numero: long): void&lt;br&gt;+setCliente (cliente: String): void&lt;br&gt;+setEndereco (endereco: String): void&lt;br&gt;+setCidade (cidade: String): void&lt;br&gt;+setValor (valor: double): void&lt;br&gt;+setPeso (peso: int): void&lt;br&gt;+getNumero (): long&lt;br style=&quot;border-color: var(--border-color);&quot;&gt;+getCliente (): String&lt;br style=&quot;border-color: var(--border-color);&quot;&gt;+getEndereco (): String&lt;br style=&quot;border-color: var(--border-color);&quot;&gt;+getCidade (): String&lt;br style=&quot;border-color: var(--border-color);&quot;&gt;+getValor (): double&lt;br style=&quot;border-color: var(--border-color);&quot;&gt;+getPeso (): int" style="text;strokeColor=none;fillColor=none;align=left;verticalAlign=top;spacingLeft=4;spacingRight=4;overflow=hidden;rotatable=0;points=[[0,0.5],[1,0.5]];portConstraint=eastwest;whiteSpace=wrap;html=1;" vertex="1" parent="7zfDCQDnotWXHfrVxMM3-17">
          <mxGeometry y="134" width="218" height="192" as="geometry" />
        </mxCell>
        <mxCell id="7zfDCQDnotWXHfrVxMM3-21" value="Caminhao" style="swimlane;fontStyle=1;align=center;verticalAlign=top;childLayout=stackLayout;horizontal=1;startSize=26;horizontalStack=0;resizeParent=1;resizeParentMax=0;resizeLast=0;collapsible=1;marginBottom=0;whiteSpace=wrap;html=1;" vertex="1" parent="1">
          <mxGeometry x="94" y="632" width="199" height="283" as="geometry" />
        </mxCell>
        <mxCell id="7zfDCQDnotWXHfrVxMM3-22" value="-placa: String&lt;br&gt;-ano: int&lt;br&gt;-km: long&lt;br&gt;-eixos: int&lt;br&gt;-valor: double" style="text;strokeColor=none;fillColor=none;align=left;verticalAlign=top;spacingLeft=4;spacingRight=4;overflow=hidden;rotatable=0;points=[[0,0.5],[1,0.5]];portConstraint=eastwest;whiteSpace=wrap;html=1;" vertex="1" parent="7zfDCQDnotWXHfrVxMM3-21">
          <mxGeometry y="26" width="199" height="91" as="geometry" />
        </mxCell>
        <mxCell id="7zfDCQDnotWXHfrVxMM3-23" value="" style="line;strokeWidth=1;fillColor=none;align=left;verticalAlign=middle;spacingTop=-1;spacingLeft=3;spacingRight=3;rotatable=0;labelPosition=right;points=[];portConstraint=eastwest;strokeColor=inherit;" vertex="1" parent="7zfDCQDnotWXHfrVxMM3-21">
          <mxGeometry y="117" width="199" height="8" as="geometry" />
        </mxCell>
        <mxCell id="7zfDCQDnotWXHfrVxMM3-24" value="+setPlaca (placa: String): void&lt;br&gt;+getPlaca (): String&lt;br&gt;+setAno (ano: int): void&lt;br&gt;+getAno (): int&lt;br&gt;+setKm (ano: long): void&lt;br&gt;+getKm (): long&lt;br&gt;+setEixos (eixos: int): void&lt;br&gt;+getEixos (): int&lt;br&gt;+setValor (valor: double):&amp;nbsp; void&lt;br&gt;+getValor (): double" style="text;strokeColor=none;fillColor=none;align=left;verticalAlign=top;spacingLeft=4;spacingRight=4;overflow=hidden;rotatable=0;points=[[0,0.5],[1,0.5]];portConstraint=eastwest;whiteSpace=wrap;html=1;" vertex="1" parent="7zfDCQDnotWXHfrVxMM3-21">
          <mxGeometry y="125" width="199" height="158" as="geometry" />
        </mxCell>
        <mxCell id="7zfDCQDnotWXHfrVxMM3-25" value="Frete" style="swimlane;fontStyle=1;align=center;verticalAlign=top;childLayout=stackLayout;horizontal=1;startSize=26;horizontalStack=0;resizeParent=1;resizeParentMax=0;resizeLast=0;collapsible=1;marginBottom=0;whiteSpace=wrap;html=1;" vertex="1" parent="1">
          <mxGeometry x="566" y="632" width="207" height="308" as="geometry" />
        </mxCell>
        <mxCell id="7zfDCQDnotWXHfrVxMM3-26" value="-numero: long&lt;br&gt;-data: String&lt;br&gt;-peso: int&lt;br&gt;-valor: double&lt;br&gt;-imposto: double" style="text;strokeColor=none;fillColor=none;align=left;verticalAlign=top;spacingLeft=4;spacingRight=4;overflow=hidden;rotatable=0;points=[[0,0.5],[1,0.5]];portConstraint=eastwest;whiteSpace=wrap;html=1;" vertex="1" parent="7zfDCQDnotWXHfrVxMM3-25">
          <mxGeometry y="26" width="207" height="90" as="geometry" />
        </mxCell>
        <mxCell id="7zfDCQDnotWXHfrVxMM3-27" value="" style="line;strokeWidth=1;fillColor=none;align=left;verticalAlign=middle;spacingTop=-1;spacingLeft=3;spacingRight=3;rotatable=0;labelPosition=right;points=[];portConstraint=eastwest;strokeColor=inherit;" vertex="1" parent="7zfDCQDnotWXHfrVxMM3-25">
          <mxGeometry y="116" width="207" height="8" as="geometry" />
        </mxCell>
        <mxCell id="7zfDCQDnotWXHfrVxMM3-28" value="+setNumero (numero: long): void&lt;br&gt;+setData (data: String): void&lt;br&gt;+setPeso (peso: int): void&lt;br&gt;+setValor (valor: double): void&lt;br&gt;+setImposto (imposto: double): void&lt;br&gt;+getNumero (): long)&lt;br style=&quot;border-color: var(--border-color);&quot;&gt;+getData (): String)&lt;br style=&quot;border-color: var(--border-color);&quot;&gt;+getPeso (): int)&lt;br style=&quot;border-color: var(--border-color);&quot;&gt;+getValor (): double)&lt;br style=&quot;border-color: var(--border-color);&quot;&gt;+getImposto (): double)" style="text;strokeColor=none;fillColor=none;align=left;verticalAlign=top;spacingLeft=4;spacingRight=4;overflow=hidden;rotatable=0;points=[[0,0.5],[1,0.5]];portConstraint=eastwest;whiteSpace=wrap;html=1;" vertex="1" parent="7zfDCQDnotWXHfrVxMM3-25">
          <mxGeometry y="124" width="207" height="184" as="geometry" />
        </mxCell>
      </root>
    </mxGraphModel>
  </diagram>
</mxfile>
